<mxfile host="app.diagrams.net" modified="2024-05-08T16:12:30.143Z" agent="Mozilla/5.0 (Windows NT 10.0; Win64; x64) AppleWebKit/537.36 (KHTML, like Gecko) Chrome/122.0.0.0 Safari/537.36 Edg/122.0.0.0" version="24.3.1" etag="prNK_s9tD8TYdGfDG99s" type="github">
  <diagram name="Sayfa -1" id="kd71BBw5QULeu3pjswbG">
    <mxGraphModel>
      <root>
        <mxCell id="0" />
        <mxCell id="1" parent="0" />
      </root>
    </mxGraphModel>
  </diagram>
</mxfile>
